<mxfile host="app.diagrams.net" modified="2023-12-14T00:23:19.094Z" agent="Mozilla/5.0 (Windows NT 10.0; Win64; x64) AppleWebKit/537.36 (KHTML, like Gecko) Chrome/120.0.0.0 Safari/537.36 Edg/120.0.0.0" etag="2mbHYjPQgg5C7kuOvERx" version="22.1.8" type="device">
  <diagram name="Página-1" id="0tn5Spzy344cpPnAjfzj">
    <mxGraphModel dx="1426" dy="759" grid="1" gridSize="10" guides="1" tooltips="1" connect="1" arrows="1" fold="1" page="1" pageScale="1" pageWidth="827" pageHeight="1169" math="0" shadow="0">
      <root>
        <mxCell id="0" />
        <mxCell id="1" parent="0" />
        <mxCell id="oG7py08zjHUfm_BzmveN-3" style="edgeStyle=orthogonalEdgeStyle;rounded=0;orthogonalLoop=1;jettySize=auto;html=1;" edge="1" parent="1" source="oG7py08zjHUfm_BzmveN-1" target="oG7py08zjHUfm_BzmveN-2">
          <mxGeometry relative="1" as="geometry" />
        </mxCell>
        <mxCell id="oG7py08zjHUfm_BzmveN-1" value="INICIO" style="strokeWidth=2;html=1;shape=mxgraph.flowchart.terminator;whiteSpace=wrap;" vertex="1" parent="1">
          <mxGeometry x="350" y="250" width="100" height="60" as="geometry" />
        </mxCell>
        <mxCell id="oG7py08zjHUfm_BzmveN-5" value="" style="edgeStyle=orthogonalEdgeStyle;rounded=0;orthogonalLoop=1;jettySize=auto;html=1;" edge="1" parent="1" source="oG7py08zjHUfm_BzmveN-2" target="oG7py08zjHUfm_BzmveN-4">
          <mxGeometry relative="1" as="geometry" />
        </mxCell>
        <mxCell id="oG7py08zjHUfm_BzmveN-2" value="&lt;br&gt;NÚMERO" style="html=1;strokeWidth=2;shape=manualInput;whiteSpace=wrap;rounded=1;size=26;arcSize=11;" vertex="1" parent="1">
          <mxGeometry x="320" y="380" width="160" height="60" as="geometry" />
        </mxCell>
        <mxCell id="oG7py08zjHUfm_BzmveN-7" value="" style="edgeStyle=orthogonalEdgeStyle;rounded=0;orthogonalLoop=1;jettySize=auto;html=1;" edge="1" parent="1" source="oG7py08zjHUfm_BzmveN-4" target="oG7py08zjHUfm_BzmveN-6">
          <mxGeometry relative="1" as="geometry" />
        </mxCell>
        <mxCell id="oG7py08zjHUfm_BzmveN-10" value="SIM" style="edgeLabel;html=1;align=center;verticalAlign=middle;resizable=0;points=[];" vertex="1" connectable="0" parent="oG7py08zjHUfm_BzmveN-7">
          <mxGeometry x="-0.481" y="-2" relative="1" as="geometry">
            <mxPoint as="offset" />
          </mxGeometry>
        </mxCell>
        <mxCell id="oG7py08zjHUfm_BzmveN-9" value="" style="edgeStyle=orthogonalEdgeStyle;rounded=0;orthogonalLoop=1;jettySize=auto;html=1;" edge="1" parent="1" source="oG7py08zjHUfm_BzmveN-4" target="oG7py08zjHUfm_BzmveN-8">
          <mxGeometry relative="1" as="geometry" />
        </mxCell>
        <mxCell id="oG7py08zjHUfm_BzmveN-11" value="NÃO" style="edgeLabel;html=1;align=center;verticalAlign=middle;resizable=0;points=[];" vertex="1" connectable="0" parent="oG7py08zjHUfm_BzmveN-9">
          <mxGeometry x="-0.5893" relative="1" as="geometry">
            <mxPoint as="offset" />
          </mxGeometry>
        </mxCell>
        <mxCell id="oG7py08zjHUfm_BzmveN-4" value="É POSITIVO?" style="rhombus;whiteSpace=wrap;html=1;strokeWidth=2;rounded=1;arcSize=11;" vertex="1" parent="1">
          <mxGeometry x="305" y="510" width="190" height="80" as="geometry" />
        </mxCell>
        <mxCell id="oG7py08zjHUfm_BzmveN-16" value="" style="edgeStyle=orthogonalEdgeStyle;rounded=0;orthogonalLoop=1;jettySize=auto;html=1;" edge="1" parent="1" source="oG7py08zjHUfm_BzmveN-6" target="oG7py08zjHUfm_BzmveN-15">
          <mxGeometry relative="1" as="geometry">
            <Array as="points">
              <mxPoint x="230" y="780" />
              <mxPoint x="400" y="780" />
            </Array>
          </mxGeometry>
        </mxCell>
        <mxCell id="oG7py08zjHUfm_BzmveN-6" value="ATRIBUIR O NÚMERO PARA VARIÁVEL A" style="rounded=1;whiteSpace=wrap;html=1;strokeWidth=2;arcSize=11;" vertex="1" parent="1">
          <mxGeometry x="170" y="660" width="120" height="60" as="geometry" />
        </mxCell>
        <mxCell id="oG7py08zjHUfm_BzmveN-17" style="edgeStyle=orthogonalEdgeStyle;rounded=0;orthogonalLoop=1;jettySize=auto;html=1;" edge="1" parent="1" source="oG7py08zjHUfm_BzmveN-8" target="oG7py08zjHUfm_BzmveN-15">
          <mxGeometry relative="1" as="geometry">
            <Array as="points">
              <mxPoint x="570" y="780" />
            </Array>
          </mxGeometry>
        </mxCell>
        <mxCell id="oG7py08zjHUfm_BzmveN-8" value="ATRIBUIR O NÚMERO PARA VARIÁVEL B" style="rounded=1;whiteSpace=wrap;html=1;strokeWidth=2;arcSize=11;" vertex="1" parent="1">
          <mxGeometry x="510" y="660" width="120" height="60" as="geometry" />
        </mxCell>
        <mxCell id="oG7py08zjHUfm_BzmveN-12" value="TRUE" style="text;html=1;strokeColor=none;fillColor=none;align=center;verticalAlign=middle;whiteSpace=wrap;rounded=0;" vertex="1" parent="1">
          <mxGeometry x="230" y="590" width="60" height="30" as="geometry" />
        </mxCell>
        <mxCell id="oG7py08zjHUfm_BzmveN-14" value="FALSE" style="text;html=1;strokeColor=none;fillColor=none;align=center;verticalAlign=middle;whiteSpace=wrap;rounded=0;" vertex="1" parent="1">
          <mxGeometry x="510" y="590" width="60" height="30" as="geometry" />
        </mxCell>
        <mxCell id="oG7py08zjHUfm_BzmveN-19" style="edgeStyle=orthogonalEdgeStyle;rounded=0;orthogonalLoop=1;jettySize=auto;html=1;" edge="1" parent="1" source="oG7py08zjHUfm_BzmveN-15" target="oG7py08zjHUfm_BzmveN-18">
          <mxGeometry relative="1" as="geometry" />
        </mxCell>
        <mxCell id="oG7py08zjHUfm_BzmveN-15" value="" style="ellipse;whiteSpace=wrap;html=1;rounded=1;strokeWidth=2;arcSize=11;" vertex="1" parent="1">
          <mxGeometry x="360" y="740" width="80" height="80" as="geometry" />
        </mxCell>
        <mxCell id="oG7py08zjHUfm_BzmveN-18" value="FIM" style="strokeWidth=2;html=1;shape=mxgraph.flowchart.terminator;whiteSpace=wrap;" vertex="1" parent="1">
          <mxGeometry x="350" y="900" width="100" height="60" as="geometry" />
        </mxCell>
        <mxCell id="oG7py08zjHUfm_BzmveN-22" style="edgeStyle=orthogonalEdgeStyle;rounded=0;orthogonalLoop=1;jettySize=auto;html=1;" edge="1" parent="1" source="oG7py08zjHUfm_BzmveN-20" target="oG7py08zjHUfm_BzmveN-21">
          <mxGeometry relative="1" as="geometry" />
        </mxCell>
        <mxCell id="oG7py08zjHUfm_BzmveN-20" value="INICIO" style="strokeWidth=2;html=1;shape=mxgraph.flowchart.terminator;whiteSpace=wrap;" vertex="1" parent="1">
          <mxGeometry x="1080" y="320" width="100" height="60" as="geometry" />
        </mxCell>
        <mxCell id="oG7py08zjHUfm_BzmveN-25" value="" style="edgeStyle=orthogonalEdgeStyle;rounded=0;orthogonalLoop=1;jettySize=auto;html=1;" edge="1" parent="1" source="oG7py08zjHUfm_BzmveN-21" target="oG7py08zjHUfm_BzmveN-24">
          <mxGeometry relative="1" as="geometry" />
        </mxCell>
        <mxCell id="oG7py08zjHUfm_BzmveN-21" value="&lt;br&gt;NÚMERO" style="html=1;strokeWidth=2;shape=manualInput;whiteSpace=wrap;rounded=1;size=26;arcSize=11;" vertex="1" parent="1">
          <mxGeometry x="1055" y="420" width="150" height="60" as="geometry" />
        </mxCell>
        <mxCell id="oG7py08zjHUfm_BzmveN-28" value="" style="edgeStyle=orthogonalEdgeStyle;rounded=0;orthogonalLoop=1;jettySize=auto;html=1;" edge="1" parent="1" source="oG7py08zjHUfm_BzmveN-24" target="oG7py08zjHUfm_BzmveN-27">
          <mxGeometry relative="1" as="geometry" />
        </mxCell>
        <mxCell id="oG7py08zjHUfm_BzmveN-30" value="SIM" style="edgeLabel;html=1;align=center;verticalAlign=middle;resizable=0;points=[];" vertex="1" connectable="0" parent="oG7py08zjHUfm_BzmveN-28">
          <mxGeometry x="-0.5927" y="3" relative="1" as="geometry">
            <mxPoint x="-43" y="57" as="offset" />
          </mxGeometry>
        </mxCell>
        <mxCell id="oG7py08zjHUfm_BzmveN-32" value="" style="edgeStyle=orthogonalEdgeStyle;rounded=0;orthogonalLoop=1;jettySize=auto;html=1;entryX=1;entryY=0.5;entryDx=0;entryDy=0;exitX=1;exitY=0.5;exitDx=0;exitDy=0;" edge="1" parent="1" source="oG7py08zjHUfm_BzmveN-24" target="oG7py08zjHUfm_BzmveN-34">
          <mxGeometry relative="1" as="geometry">
            <mxPoint x="1269.913793103448" y="510.0044827586207" as="sourcePoint" />
            <mxPoint x="1210.0000000000082" y="769.97" as="targetPoint" />
            <Array as="points">
              <mxPoint x="1340" y="550" />
              <mxPoint x="1340" y="810" />
            </Array>
          </mxGeometry>
        </mxCell>
        <mxCell id="oG7py08zjHUfm_BzmveN-33" value="NÃO" style="edgeLabel;html=1;align=center;verticalAlign=middle;resizable=0;points=[];" vertex="1" connectable="0" parent="oG7py08zjHUfm_BzmveN-32">
          <mxGeometry x="-0.5618" y="3" relative="1" as="geometry">
            <mxPoint x="-3" y="61" as="offset" />
          </mxGeometry>
        </mxCell>
        <mxCell id="oG7py08zjHUfm_BzmveN-24" value="É MAIOR QUE 100?" style="rhombus;whiteSpace=wrap;html=1;strokeWidth=2;rounded=1;arcSize=11;" vertex="1" parent="1">
          <mxGeometry x="1030" y="510" width="200" height="80" as="geometry" />
        </mxCell>
        <mxCell id="oG7py08zjHUfm_BzmveN-35" value="" style="edgeStyle=orthogonalEdgeStyle;rounded=0;orthogonalLoop=1;jettySize=auto;html=1;entryX=0;entryY=0.5;entryDx=0;entryDy=0;" edge="1" parent="1" source="oG7py08zjHUfm_BzmveN-27" target="oG7py08zjHUfm_BzmveN-34">
          <mxGeometry relative="1" as="geometry">
            <mxPoint x="1080" y="820" as="targetPoint" />
            <Array as="points">
              <mxPoint x="950" y="810" />
            </Array>
          </mxGeometry>
        </mxCell>
        <mxCell id="oG7py08zjHUfm_BzmveN-27" value="IMPRIMIR NÚMERO" style="whiteSpace=wrap;html=1;strokeWidth=2;rounded=1;arcSize=11;" vertex="1" parent="1">
          <mxGeometry x="890" y="650" width="120" height="60" as="geometry" />
        </mxCell>
        <mxCell id="oG7py08zjHUfm_BzmveN-37" style="edgeStyle=orthogonalEdgeStyle;rounded=0;orthogonalLoop=1;jettySize=auto;html=1;" edge="1" parent="1" source="oG7py08zjHUfm_BzmveN-34" target="oG7py08zjHUfm_BzmveN-36">
          <mxGeometry relative="1" as="geometry" />
        </mxCell>
        <mxCell id="oG7py08zjHUfm_BzmveN-34" value="" style="ellipse;whiteSpace=wrap;html=1;strokeWidth=2;rounded=1;arcSize=11;" vertex="1" parent="1">
          <mxGeometry x="1090" y="770" width="80" height="80" as="geometry" />
        </mxCell>
        <mxCell id="oG7py08zjHUfm_BzmveN-36" value="FIM" style="strokeWidth=2;html=1;shape=mxgraph.flowchart.terminator;whiteSpace=wrap;" vertex="1" parent="1">
          <mxGeometry x="1080" y="950" width="100" height="60" as="geometry" />
        </mxCell>
      </root>
    </mxGraphModel>
  </diagram>
</mxfile>
